<svg xmlns="http://www.w3.org/2000/svg" xmlns:xlink="http://www.w3.org/1999/xlink" width="202" height="11" version="1.1" viewBox="0 0 202 11"><title>Divider black Copy 6</title><desc>Created with Sketch.</desc><g id="Web" fill="none" fill-rule="evenodd" stroke="none" stroke-linecap="round" stroke-linejoin="round" stroke-width="1"><g id="Careers-Page-[mobile]" stroke="#FFF" transform="translate(-87.000000, -244.000000)"><g id="Divider-/-XXX-[db]" transform="translate(38.000000, 244.935560)"><g id="Group-2" transform="translate(50.000000, 0.000000)"><g id="Group-7" transform="translate(60.000000, 0.000000)"><path id="Line_6127" d="M10,0 L0,10"/><path id="Line_6127-2" d="M20,0 L10,10"/><path id="Line_6127-3" d="M30,0 L20,10"/><path id="Line_6127-4" d="M40,0 L30,10"/><path id="Line_6127-5" d="M50,0 L40,10"/><path id="Line_6127-6" d="M60,0 L50,10"/><path id="Line_6127-7" d="M70,0 L60,10"/><path id="Line_6127-8" d="M80,0 L70,10"/><path id="Line_6127-9" d="M90,0 L80,10"/><path id="Line_6127-10" d="M100,0 L90,10"/><path id="Line_6127-11" d="M110,0 L100,10"/><path id="Line_6127-12" d="M120,0 L110,10"/><path id="Line_6127-13" d="M130,0 L120,10"/><path id="Line_6127-14" d="M140,0 L130,10"/></g><g id="Group-7" transform="translate(70.000000, 5.000000) scale(-1, 1) translate(-70.000000, -5.000000)"><path id="Line_6127" d="M10,0 L0,10"/><path id="Line_6127-2" d="M20,0 L10,10"/><path id="Line_6127-3" d="M30,0 L20,10"/><path id="Line_6127-4" d="M40,0 L30,10"/><path id="Line_6127-5" d="M50,0 L40,10"/><path id="Line_6127-6" d="M60,0 L50,10"/><path id="Line_6127-7" d="M70,0 L60,10"/><path id="Line_6127-8" d="M80,0 L70,10"/><path id="Line_6127-9" d="M90,0 L80,10"/><path id="Line_6127-10" d="M100,0 L90,10"/><path id="Line_6127-11" d="M110,0 L100,10"/><path id="Line_6127-12" d="M120,0 L110,10"/><path id="Line_6127-13" d="M130,0 L120,10"/><path id="Line_6127-14" d="M140,0 L130,10"/></g></g></g></g></g></svg>